<mxfile host="app.diagrams.net" modified="2023-11-20T11:48:20.958Z" agent="Mozilla/5.0 (Windows NT 10.0; Win64; x64) AppleWebKit/537.36 (KHTML, like Gecko) Chrome/119.0.0.0 Safari/537.36" version="21.6.9" etag="yfvbGClec4exGm2QGyxZ" type="gitlab">
  <diagram name="Page-1" id="QL7pYkuhzi9ZSZ3nKwWx">
    <mxGraphModel>
      <root>
        <mxCell id="0" />
        <mxCell id="1" parent="0" />
      </root>
    </mxGraphModel>
  </diagram>
</mxfile>
